<svg width="1958" height="343" viewBox="0 0 1958 343" fill="none" xmlns="http://www.w3.org/2000/svg">
<g clip-path="url(#clip0_68_21)">
<path d="M1958 0H0V343H1958V0Z" fill="#0D1520"/>
<path d="M1958 0H0V137.2H1958V0Z" fill="#111F36"/>
<path d="M150.57 51.45C150.57 23.035 116.864 0 75.2851 0C33.7063 0 0 23.035 0 51.45V166.566C0 194.981 33.7063 218.016 75.2851 218.016C116.864 218.016 150.57 194.981 150.57 166.566V51.45Z" fill="#111F36"/>
<path d="M452 51.47C452 23.0439 410.139 0 358.5 0C306.861 0 265 23.0439 265 51.47V260.53C265 288.956 306.861 312 358.5 312C410.139 312 452 288.956 452 260.53V51.47Z" fill="#111F36"/>
<path d="M753.031 51.45C753.031 23.035 719.325 0 677.746 0C636.167 0 602.461 23.035 602.461 51.45V143.904C602.461 172.319 636.167 195.354 677.746 195.354C719.325 195.354 753.031 172.319 753.031 143.904V51.45Z" fill="#111F36"/>
<path d="M1092 51.5159C1092 23.0644 1049.91 0 998 0C946.085 0 904 23.0644 904 51.5159V256.484C904 284.936 946.085 308 998 308C1049.91 308 1092 284.936 1092 256.484V51.5159Z" fill="#111F36"/>
<path d="M1355.49 51.45C1355.49 23.035 1321.79 0 1280.21 0C1238.63 0 1204.92 23.035 1204.92 51.45V192.636C1204.92 221.051 1238.63 244.086 1280.21 244.086C1321.79 244.086 1355.49 221.051 1355.49 192.636V51.45Z" fill="#111F36"/>
<path d="M1656.72 51.45C1656.72 23.035 1623.02 0 1581.44 0C1539.86 0 1506.15 23.035 1506.15 51.45V203.525C1506.15 231.94 1539.86 254.975 1581.44 254.975C1623.02 254.975 1656.72 231.94 1656.72 203.525V51.45Z" fill="#111F36"/>
<path d="M1958 51.4746C1958 23.046 1932.03 0 1900 0C1867.97 0 1842 23.046 1842 51.4746V193.525C1842 221.954 1867.97 245 1900 245C1932.03 245 1958 221.954 1958 193.525V51.4746Z" fill="#111F36"/>
<path d="M527.131 80.8164C568.71 80.8164 602.416 103.852 602.416 132.267V235.166C602.416 263.581 568.71 286.616 527.131 286.616C485.552 286.616 451.846 263.581 451.846 235.166V132.267C451.846 103.852 485.552 80.8164 527.131 80.8164ZM1431 100C1472.42 100 1506 119.028 1506 142.5V227.5C1506 250.972 1472.42 270 1431 270C1389.58 270 1356 250.972 1356 227.5V142.5C1356 119.028 1389.58 100 1431 100ZM1749.5 55C1800.59 55 1842 78.0573 1842 106.5V209.5C1842 237.943 1800.59 261 1749.5 261C1698.41 261 1657 237.943 1657 209.5V106.5C1657 78.0573 1698.41 55 1749.5 55ZM828.361 47.4766C869.94 47.4766 903.646 70.5117 903.646 98.9268V201.826C903.646 230.241 869.94 253.276 828.361 253.276C786.783 253.276 753.076 230.241 753.076 201.826V98.9268C753.076 70.5117 786.783 47.4766 828.361 47.4766ZM208 31C239.48 31 265 54.0573 265 82.5V185.5C265 213.943 239.48 237 208 237C176.52 237 151 213.943 151 185.5V82.5C151 54.0573 176.52 31 208 31ZM1148.5 11C1179.7 11 1205 34.0573 1205 62.5V165.5C1205 193.943 1179.7 217 1148.5 217C1117.3 217 1092 193.943 1092 165.5V62.5C1092 34.0573 1117.3 11 1148.5 11Z" fill="#0D1520"/>
</g>
<defs>
<clipPath id="clip0_68_21">
<rect width="1958" height="343" fill="white"/>
</clipPath>
</defs>
</svg>
